<svg id="Layer_1" data-name="Layer 1" xmlns="http://www.w3.org/2000/svg" viewBox="0 0 646.02 290.62"><defs><style>.cls-1{fill:#be1e2d;}.cls-2{fill:#fbb040;}.cls-3{fill:#a03222;}.cls-4{fill:#fff;}.cls-5{fill:#0084a9;}</style></defs><title>DRS Logo Stamp 2016</title><path class="cls-1" d="M293.51,138.05c4.62,66.09-54.87,126.39-132.86,134.67s-145-38.58-149.59-104.67S65.93,41.67,143.93,33.38,288.9,72,293.51,138.05Z"/><path class="cls-2" d="M314.69,128.68c4,70.5-56.29,135.73-134.76,145.69S34.58,235.27,30.54,164.78,86.83,29.05,165.29,19.08,310.64,58.18,314.69,128.68Z"/><path class="cls-1" d="M289.83,131.09c4.14,68.57-54.72,131.73-131.47,141.08S16,233.52,11.89,165,66.61,33.22,143.36,23.87,285.69,62.53,289.83,131.09Z"/><path class="cls-3" d="M286.18,136.48c4.43,68.84-52.67,131.65-127.55,140.28S19.46,236.57,15,167.73,67.7,36.08,142.58,27.45,281.75,67.63,286.18,136.48Z"/><path class="cls-4" d="M295.82,151.92c-8,65.33-67.25,118.48-132.44,118.69S51.77,218.06,59.72,152.72,127,34.24,192.16,34,303.77,86.59,295.82,151.92Z"/><path class="cls-5" d="M115.87,56.09h60q36.7,0,54.69,10.15T262.8,98.37q14.25,22,14.25,55.53,0,42.21-24.9,70.51t-68.65,28.3H115.87ZM161.1,92.25V215.69h19q25.15,0,37.37-18.8t12.22-44.15a78.33,78.33,0,0,0-7-33.06q-7-15.2-17.32-21.32T180.5,92.25Z"/><path class="cls-5" d="M349.11,174.78v77.93H302.73V56.09h86.43q23.91,0,38.39,5.54t24,20.37A59.8,59.8,0,0,1,461,115q0,35.41-34.14,50.81l36.3,86.93H412.3l-30.2-77.93Zm0-83.69v50.13h28.23q13.83,0,20.09-1.94t11.16-8.64a25.33,25.33,0,0,0,4.9-15.34,23.75,23.75,0,0,0-4.9-14.69q-4.9-6.48-10.66-8t-21.61-1.51Z"/><path class="cls-5" d="M628,99.3l-39.18,13.11q-7.91-23.33-33.48-23.33-27.3,0-27.3,17.72a15.93,15.93,0,0,0,5.11,12q5.1,4.9,23.09,8.51,30.06,6.07,44,12.26t23.52,19.95a52.6,52.6,0,0,1,9.57,30.75q0,26.64-20.51,46.08T552,255.73q-30.22,0-51.45-13.76t-28-40.84l42.64-9.65q7.19,27.51,40,27.51,15.81,0,23.58-6.12t7.76-14.62a15.24,15.24,0,0,0-7-13.4q-7-4.75-27.18-8.94-37.55-7.78-53.51-21.25t-16-39.39q0-26.21,19.07-44.22t51.73-18Q611.47,53.07,628,99.3Z"/></svg>